<svg xmlns="http://www.w3.org/2000/svg" width="12.792" height="12.401" viewBox="0 0 12.792 12.401"><g transform="matrix(-0.259, 0.966, -0.966, -0.259, 12.881, 2.477)"><path d="M4.812,13.755l8.1-8.551a.929.929,0,0,1,.972-.411.98.98,0,0,1,.742.781A1.034,1.034,0,0,1,14.236,6.6l-8.1,8.551a.915.915,0,0,1-1.219-.111,1.049,1.049,0,0,1-.109-1.287Z" transform="translate(-4.37 -4.753)" fill="#f2c94c"/><path d="M9.3,5.337a1.041,1.041,0,0,1,.639-.287l6.383-.382a1.006,1.006,0,0,1,.77.292.961.961,0,0,1,.272.77l-.5,6.247a1.006,1.006,0,0,1-1.962-.166L15.321,6.7l-5.267.337a.993.993,0,0,1-.76-1.7Z" transform="translate(-7.098 -4.7)" fill="#f2c94c"/></g></svg>