<svg xmlns="http://www.w3.org/2000/svg" width="15.47" height="17.52" viewBox="0 0 15.47 17.52">
  <g id="Grupo_133" data-name="Grupo 133" transform="translate(85.5 -592)">
    <g id="Grupo_132" data-name="Grupo 132">
      <g id="Grupo_127" data-name="Grupo 127">
        <rect id="Ret창ngulo_10" data-name="Ret창ngulo 10" width="6.55" height="0.54" transform="translate(-81.03 593.83)" fill="#fff"/>
        <rect id="Ret창ngulo_11" data-name="Ret창ngulo 11" width="6.55" height="0.54" transform="translate(-81.03 597.53)" fill="#fff"/>
        <g id="Grupo_49" data-name="Grupo 49" transform="translate(-267.765 -106)">
          <path id="Caminho_27" data-name="Caminho 27" d="M9.8,24.23h10a2.73,2.73,0,0,0,2.73-2.73V16.16h0V11.54H19.91V6.71H9.69v4.83H7.06v3.77h0V21.5A2.73,2.73,0,0,0,9.8,24.23ZM21.7,21.5a1.88,1.88,0,0,1-1.88,1.88H9.8A1.88,1.88,0,0,1,7.92,21.5V16.16H11.5a2.76,2.76,0,0,0,1,1.6,3.79,3.79,0,0,0,4.63,0,2.81,2.81,0,0,0,1-1.6H21.7Zm-9.34-5.34h4.89a2,2,0,0,1-.67.94,2.94,2.94,0,0,1-3.56,0,2.13,2.13,0,0,1-.66-.94Zm-1.82-4.62v-4h8.53V13.7H10.54V11.54Zm-2.63.84H9.69v2.17H19.92V12.38H21.7v2.93H7.92V12.38Z" transform="translate(175.205 691.29)" fill="#fff"/>
        </g>
        <circle id="Elipse_4" data-name="Elipse 4" cx="0.77" cy="0.77" r="0.77" transform="translate(-82.23 604.27)" fill="#fff"/>
        <circle id="Elipse_5" data-name="Elipse 5" cx="0.77" cy="0.77" r="0.77" transform="translate(-79.72 604.3)" fill="#fff"/>
        <circle id="Elipse_6" data-name="Elipse 6" cx="0.77" cy="0.77" r="0.77" transform="translate(-77.32 604.27)" fill="#fff"/>
        <circle id="Elipse_7" data-name="Elipse 7" cx="0.77" cy="0.77" r="0.77" transform="translate(-74.86 604.27)" fill="#fff"/>
        <circle id="Elipse_8" data-name="Elipse 8" cx="0.77" cy="0.77" r="0.77" transform="translate(-83.43 606.49)" fill="#fff"/>
        <circle id="Elipse_9" data-name="Elipse 9" cx="0.77" cy="0.77" r="0.77" transform="translate(-80.95 606.49)" fill="#fff"/>
        <circle id="Elipse_10" data-name="Elipse 10" cx="0.77" cy="0.77" r="0.77" transform="translate(-78.48 606.49)" fill="#fff"/>
        <circle id="Elipse_11" data-name="Elipse 11" cx="0.77" cy="0.77" r="0.77" transform="translate(-76 606.49)" fill="#fff"/>
        <circle id="Elipse_12" data-name="Elipse 12" cx="0.77" cy="0.77" r="0.77" transform="translate(-73.52 606.49)" fill="#fff"/>
      </g>
    </g>
  </g>
</svg>
