<svg xmlns="http://www.w3.org/2000/svg" width="18.011" height="13.871" viewBox="0 0 18.011 13.871">
  <g id="Grupo_135" data-name="Grupo 135" transform="translate(58.735 -594.905)">
    <g id="Grupo_134" data-name="Grupo 134">
      <g id="Grupo_125" data-name="Grupo 125" transform="translate(-353 -37)">
        <path id="Caminho_28" data-name="Caminho 28" d="M20.266,17.219a1.621,1.621,0,0,1-1.106,1.537,2.151,2.151,0,0,1-.668.077H5.836a1.606,1.606,0,0,1-1.452-1.114,2.205,2.205,0,0,1-.077-.768V8.706a1.637,1.637,0,0,1,.346-1.114,1.783,1.783,0,0,1,.768-.515A1.429,1.429,0,0,1,5.928,7H18.606a1.621,1.621,0,0,1,1.667,1.629v8.59a.507.507,0,0,0,1.007,0V8.6A2.643,2.643,0,0,0,20.05,6.394a3.58,3.58,0,0,0-2.059-.4H5.9A2.643,2.643,0,0,0,3.639,7.316,4.456,4.456,0,0,0,3.3,9.621v6.562a4.61,4.61,0,0,0,.307,2.267,2.62,2.62,0,0,0,2.228,1.375h12.14a3.627,3.627,0,0,0,2.044-.376,2.658,2.658,0,0,0,1.252-2.221.507.507,0,0,0-1.007-.008Z" transform="translate(290.996 625.931)" fill="#fff"/>
        <path id="Caminho_29" data-name="Caminho 29" d="M6.21,10.2,8.369,12.21l3.419,3.173.768.73a.507.507,0,0,0,.707,0l2.105-1.99,3.358-3.181.768-.768c.469-.446-.246-1.153-.715-.707l-2.105,1.99-3.358,3.181-.768.768h.707L11.1,13.4,7.716,10.228,6.947,9.5c-.476-.438-1.191.269-.715.707Z" transform="translate(290.346 625.155)" fill="#fff"/>
      </g>
    </g>
  </g>
</svg>
