<svg xmlns="http://www.w3.org/2000/svg" xmlns:xlink="http://www.w3.org/1999/xlink" viewBox="0 0 262.38 55.68"><defs><linearGradient id="linear-gradient" x1="15.72" y1="34.88" x2="43.93" y2="34.88" gradientUnits="userSpaceOnUse"><stop offset="0" stop-color="#fff"/><stop offset="0.37" stop-color="#fdfdfd"/><stop offset="0.51" stop-color="#f6f6f6"/><stop offset="0.6" stop-color="#ebebeb"/><stop offset="0.68" stop-color="#dadada"/><stop offset="0.75" stop-color="#c4c4c4"/><stop offset="0.8" stop-color="#a8a8a8"/><stop offset="0.86" stop-color="#888"/><stop offset="0.91" stop-color="#626262"/><stop offset="0.95" stop-color="#373737"/><stop offset="0.99" stop-color="#090909"/><stop offset="1"/></linearGradient><linearGradient id="linear-gradient-2" x1="321.31" y1="-232.28" x2="349.52" y2="-232.28" gradientTransform="translate(352.69 -209.95) rotate(180)" xlink:href="#linear-gradient"/><linearGradient id="linear-gradient-3" x1="15.73" y1="28.62" x2="34.73" y2="28.62" gradientUnits="userSpaceOnUse"><stop offset="0" stop-color="#fff"/><stop offset="0.16" stop-color="#fcfcfc"/><stop offset="0.29" stop-color="#f2f2f2"/><stop offset="0.41" stop-color="#e1e1e1"/><stop offset="0.52" stop-color="#c9c9c9"/><stop offset="0.63" stop-color="#aaa"/><stop offset="0.74" stop-color="#848484"/><stop offset="0.84" stop-color="#585858"/><stop offset="0.94" stop-color="#252525"/><stop offset="1"/></linearGradient><linearGradient id="linear-gradient-4" x1="12.39" y1="28.78" x2="31.37" y2="28.78" gradientUnits="userSpaceOnUse"><stop offset="0"/><stop offset="0.06" stop-color="#252525"/><stop offset="0.16" stop-color="#585858"/><stop offset="0.26" stop-color="#848484"/><stop offset="0.37" stop-color="#aaa"/><stop offset="0.48" stop-color="#c9c9c9"/><stop offset="0.59" stop-color="#e1e1e1"/><stop offset="0.71" stop-color="#f2f2f2"/><stop offset="0.84" stop-color="#fcfcfc"/><stop offset="1" stop-color="#fff"/></linearGradient></defs><g style="isolation:isolate"><g id="Camada_1" data-name="Camada 1"><path d="M26.78,30.24h-6.5a7.91,7.91,0,1,1,0-15.82H21V9.88h3.54v4.54h2.25a4.6,4.6,0,0,0,0-9.2h-6.5a17.12,17.12,0,0,0,0,34.23h6.5a4.61,4.61,0,0,0,0-9.21Z" transform="translate(-3.17 -5.22)" style="fill:#20a953"/><path d="M26.82,17.73H20.33a4.6,4.6,0,1,0,0,9.2h6.49a7.91,7.91,0,0,1,0,15.82H24.53v4.54H21V42.75h-.66a4.61,4.61,0,1,0,0,9.21h6.49a17.12,17.12,0,0,0,0-34.23Z" transform="translate(-3.17 -5.22)" style="fill:#20a953"/><path d="M28.54,17.81A14.78,14.78,0,0,1,27,47.29H15.73s0,0,0,.06A4.61,4.61,0,0,0,20.33,52h6.49a17.12,17.12,0,0,0,1.72-34.15Z" transform="translate(-3.17 -5.22)" style="opacity:0.6000000000000001;mix-blend-mode:multiply;fill:url(#linear-gradient)"/><path d="M18.57,39.4A14.78,14.78,0,0,1,20.15,9.92H31.38V9.86a4.6,4.6,0,0,0-4.6-4.6h-6.5A17.11,17.11,0,0,0,18.57,39.4Z" transform="translate(-3.17 -5.22)" style="opacity:0.6000000000000001;mix-blend-mode:multiply;fill:url(#linear-gradient-2)"/><path d="M22.4,22.39H15.73a4.59,4.59,0,0,0,4.6,4.54h6.49a7.92,7.92,0,0,1,7.91,7.91h0A12.37,12.37,0,0,0,22.4,22.39Z" transform="translate(-3.17 -5.22)" style="opacity:0.6000000000000001;mix-blend-mode:multiply;fill:url(#linear-gradient-3)"/><path d="M26.78,30.24h-6.5a7.91,7.91,0,0,1-7.89-7.46,12.35,12.35,0,0,0,12.32,12h6.66a1.93,1.93,0,0,0,0-.24,1.15,1.15,0,0,0,0-.19c0-.1,0-.18,0-.27l0-.19c0-.09-.05-.18-.07-.27s0-.11-.05-.17a1.48,1.48,0,0,0-.1-.27A.58.58,0,0,0,31,33c0-.1-.09-.19-.14-.29a1.17,1.17,0,0,1-.05-.11l-.18-.3a.56.56,0,0,1-.05-.08L30.36,32l0,0a2.89,2.89,0,0,0-.29-.32h0A4.55,4.55,0,0,0,26.78,30.24Z" transform="translate(-3.17 -5.22)" style="opacity:0.6000000000000001;mix-blend-mode:multiply;fill:url(#linear-gradient-4)"/><text transform="translate(47.79 39.69)" style="font-size:42.476768493652344px;fill:#fff;font-family:Arial-BoldMT, Arial;font-weight:700"><tspan style="letter-spacing:-0.07421336089799489em">T</tspan><tspan x="22.79" y="0" style="letter-spacing:-0.00002299050833271217em">axa</tspan><tspan x="93.67" y="0" style="fill:#f28a1a;letter-spacing:-0.00002299050833271217em"> </tspan><tspan x="105.47" y="0" style="fill:#20a953">Dólar</tspan></text></g></g></svg>