<svg xmlns="http://www.w3.org/2000/svg" xmlns:xlink="http://www.w3.org/1999/xlink" viewBox="0 0 274 132.1"><defs><linearGradient id="linear-gradient" x1="128.54" y1="41.23" x2="164.56" y2="41.23" gradientUnits="userSpaceOnUse"><stop offset="0" stop-color="#fff"/><stop offset="0.37" stop-color="#fdfdfd"/><stop offset="0.51" stop-color="#f6f6f6"/><stop offset="0.6" stop-color="#ebebeb"/><stop offset="0.68" stop-color="#dadada"/><stop offset="0.75" stop-color="#c4c4c4"/><stop offset="0.8" stop-color="#a8a8a8"/><stop offset="0.86" stop-color="#888"/><stop offset="0.91" stop-color="#626262"/><stop offset="0.95" stop-color="#373737"/><stop offset="0.99" stop-color="#090909"/><stop offset="1"/></linearGradient><linearGradient id="linear-gradient-2" x1="207.22" y1="-105.7" x2="243.24" y2="-105.7" gradientTransform="translate(355.75 -80.51) rotate(180)" xlink:href="#linear-gradient"/><linearGradient id="linear-gradient-3" x1="128.54" y1="33.22" x2="152.8" y2="33.22" gradientUnits="userSpaceOnUse"><stop offset="0" stop-color="#fff"/><stop offset="0.16" stop-color="#fcfcfc"/><stop offset="0.29" stop-color="#f2f2f2"/><stop offset="0.41" stop-color="#e1e1e1"/><stop offset="0.52" stop-color="#c9c9c9"/><stop offset="0.63" stop-color="#aaa"/><stop offset="0.74" stop-color="#848484"/><stop offset="0.84" stop-color="#585858"/><stop offset="0.94" stop-color="#252525"/><stop offset="1"/></linearGradient><linearGradient id="linear-gradient-4" x1="124.28" y1="33.43" x2="148.52" y2="33.43" gradientUnits="userSpaceOnUse"><stop offset="0"/><stop offset="0.06" stop-color="#252525"/><stop offset="0.16" stop-color="#585858"/><stop offset="0.26" stop-color="#848484"/><stop offset="0.37" stop-color="#aaa"/><stop offset="0.48" stop-color="#c9c9c9"/><stop offset="0.59" stop-color="#e1e1e1"/><stop offset="0.71" stop-color="#f2f2f2"/><stop offset="0.84" stop-color="#fcfcfc"/><stop offset="1" stop-color="#fff"/></linearGradient></defs><g style="isolation:isolate"><g id="Camada_1" data-name="Camada 1"><path d="M142.65,35.29h-8.29a10.1,10.1,0,1,1,0-20.19h.91V9.31h4.52V15.1h2.86a5.88,5.88,0,0,0,0-11.76h-8.29a21.86,21.86,0,0,0,0,43.71h8.29a5.88,5.88,0,0,0,0-11.76Z" transform="translate(-1.53 -3.34)" style="fill:#20a953"/><path d="M142.71,19.32h-8.29a5.88,5.88,0,1,0,0,11.75h8.29a10.1,10.1,0,0,1,0,20.2h-2.92v5.8h-4.52v-5.8h-.85a5.88,5.88,0,1,0,0,11.76h8.29a21.86,21.86,0,0,0,0-43.71Z" transform="translate(-1.53 -3.34)" style="fill:#20a953"/><path d="M144.9,19.43a18.87,18.87,0,0,1-2,37.64H128.54v.08A5.88,5.88,0,0,0,134.42,63h8.29a21.86,21.86,0,0,0,2.19-43.6Z" transform="translate(-1.53 -3.34)" style="opacity:0.6000000000000001;mix-blend-mode:multiply;fill:url(#linear-gradient)"/><path d="M132.17,47a18.87,18.87,0,0,1,2-37.63h14.33s0-.06,0-.08a5.88,5.88,0,0,0-5.88-5.88h-8.29A21.85,21.85,0,0,0,132.17,47Z" transform="translate(-1.53 -3.34)" style="opacity:0.6000000000000001;mix-blend-mode:multiply;fill:url(#linear-gradient-2)"/><path d="M137.06,25.28h-8.52a5.88,5.88,0,0,0,5.88,5.79h8.29a10.11,10.11,0,0,1,10.09,10.1h0A15.78,15.78,0,0,0,137.06,25.28Z" transform="translate(-1.53 -3.34)" style="opacity:0.6000000000000001;mix-blend-mode:multiply;fill:url(#linear-gradient-3)"/><path d="M142.65,35.29h-8.29a10.1,10.1,0,0,1-10.08-9.51A15.77,15.77,0,0,0,140,41.09h8.51c0-.1,0-.2,0-.31s0-.16,0-.24,0-.23-.05-.35,0-.15,0-.23l-.09-.34a1.41,1.41,0,0,0-.06-.22c0-.12-.08-.23-.12-.35a1.34,1.34,0,0,1-.07-.18l-.18-.36a1,1,0,0,0-.07-.15c-.07-.13-.15-.25-.23-.38l-.06-.1a4,4,0,0,0-.3-.39l0-.06c-.12-.14-.24-.28-.37-.41h0A5.82,5.82,0,0,0,142.65,35.29Z" transform="translate(-1.53 -3.34)" style="opacity:0.6000000000000001;mix-blend-mode:multiply;fill:url(#linear-gradient-4)"/><text transform="translate(0 111.68)" style="font-size:54.23706817626953px;fill:#fff;font-family:Arial-BoldMT, Arial;font-weight:700"><tspan style="letter-spacing:-0.07421844064132578em">T</tspan><tspan x="29.1" y="0">axa</tspan><tspan x="119.6" y="0" style="fill:#f28a1a"> </tspan><tspan x="134.67" y="0" style="fill:#20a953">Dólar</tspan></text></g></g></svg>