<svg xmlns="http://www.w3.org/2000/svg" width="19.204" height="19.5" viewBox="0 0 19.204 19.5">
  <g id="Grupo_131" data-name="Grupo 131" transform="translate(166.453 -589)">
    <g id="Grupo_130" data-name="Grupo 130">
      <g id="Grupo_122" data-name="Grupo 122" transform="translate(-191.702 -109)">
        <g id="Grupo_45" data-name="Grupo 45">
          <text id="_" data-name="€" transform="translate(29.002 707)" fill="#fff" font-size="8" font-family="SegoeUI, Segoe UI"><tspan x="0" y="0">€</tspan></text>
          <path id="Caminho_14" data-name="Caminho 14" d="M32.8,25.912v-.136a5.968,5.968,0,0,0-1.235-3.554,5.615,5.615,0,0,0-4.546-2.2,5.77,5.77,0,0,0,.015,11.54h.133A5.766,5.766,0,0,1,32.8,25.912Z" transform="translate(4.774 679.057)" fill="none" stroke="#fff" stroke-miterlimit="10" stroke-width="1.5"/>
          <text id="_2" data-name="$" transform="translate(35.572 713.109)" fill="#fff" font-size="8" font-family="SegoeUI, Segoe UI"><tspan x="0" y="0">$</tspan></text>
          <circle id="Elipse_3" data-name="Elipse 3" cx="5.715" cy="5.715" r="5.715" transform="translate(31.951 704.953)" fill="none" stroke="#fff" stroke-miterlimit="10" stroke-width="1.5"/>
          <path id="Caminho_15" data-name="Caminho 15" d="M21.169,54.1v2.5a1.073,1.073,0,0,0,1.025,1.106h1.235" transform="translate(4.832 657.542)" fill="none" stroke="#fff" stroke-miterlimit="10" stroke-width="1.5"/>
          <path id="Caminho_17" data-name="Caminho 17" d="M6.78,39.69v4.376l2.684-2.153Z" transform="translate(21.444 673.434)" fill="#fff"/>
          <path id="Caminho_18" data-name="Caminho 18" d="M65.31,28.139v-2.5a1.073,1.073,0,0,0-1.025-1.106H63.05" transform="translate(-21.609 676.209)" fill="none" stroke="#fff" stroke-miterlimit="10" stroke-width="1.5"/>
          <path id="Caminho_19" data-name="Caminho 19" d="M38.134,4.376V0L35.45,2.153Z" transform="translate(3.344 698.49)" fill="#fff"/>
        </g>
      </g>
    </g>
  </g>
</svg>
