<svg xmlns="http://www.w3.org/2000/svg" width="19.028" height="17.699" viewBox="0 0 19.028 17.699">
  <g id="Grupo_137" data-name="Grupo 137" transform="translate(29 -592)">
    <g id="Grupo_136" data-name="Grupo 136">
      <g id="Grupo_126" data-name="Grupo 126" transform="translate(-439 14)">
        <path id="share" d="M21.11,5.54a3.4,3.4,0,0,0-3.39,3.39,3,3,0,0,0,.07.68l-6.16,2.77a3.39,3.39,0,1,0,0,4l6.16,2.73a3.55,3.55,0,0,0-.08.73,3.41,3.41,0,1,0,.64-2L12.2,15.1a3.55,3.55,0,0,0,.08-.73,3.5,3.5,0,0,0-.08-.74l6.12-2.77a3.39,3.39,0,1,0,2.79-5.32Zm0,1.36a2,2,0,1,1-2,2,2,2,0,0,1,2-2ZM8.89,12.33a2,2,0,1,1-2,2A2,2,0,0,1,8.89,12.33Zm12.22,5.43a2,2,0,1,1-2,2A2,2,0,0,1,21.11,17.76Z" transform="translate(404.497 572.46)" fill="#fff"/>
      </g>
    </g>
  </g>
</svg>
